<svg xmlns="http://www.w3.org/2000/svg" xmlns:xlink="http://www.w3.org/1999/xlink" width="500" zoomAndPan="magnify" viewBox="0 0 375 374.999991" height="500" preserveAspectRatio="xMidYMid meet" version="1.0"><defs><g/><clipPath id="b86f3fbbcb"><path d="M 375 12 L 375 363 C 375 366.183594 373.734375 369.234375 371.484375 371.484375 C 369.234375 373.734375 366.183594 375 363 375 L 12 375 C 8.816406 375 5.765625 373.734375 3.515625 371.484375 C 1.265625 369.234375 0 366.183594 0 363 L 0 12 C 0 5.371094 5.371094 0 12 0 L 363 0 C 366.183594 0 369.234375 1.265625 371.484375 3.515625 C 373.734375 5.765625 375 8.816406 375 12 Z M 375 12 " clip-rule="nonzero"/></clipPath><clipPath id="739f8535a2"><path d="M 0 0 L 375 0 L 375 375 L 0 375 Z M 0 0 " clip-rule="nonzero"/></clipPath><clipPath id="fd1c02e8a2"><path d="M 375 12 L 375 363 C 375 366.183594 373.734375 369.234375 371.484375 371.484375 C 369.234375 373.734375 366.183594 375 363 375 L 12 375 C 8.816406 375 5.765625 373.734375 3.515625 371.484375 C 1.265625 369.234375 0 366.183594 0 363 L 0 12 C 0 5.371094 5.371094 0 12 0 L 363 0 C 366.183594 0 369.234375 1.265625 371.484375 3.515625 C 373.734375 5.765625 375 8.816406 375 12 Z M 375 12 " clip-rule="nonzero"/></clipPath><clipPath id="6fba8ec338"><rect x="0" width="375" y="0" height="375"/></clipPath><clipPath id="c68945c632"><rect x="0" width="153" y="0" height="321"/></clipPath></defs><g clip-path="url(#b86f3fbbcb)"><g transform="matrix(1, 0, 0, 1, 0, 0)"><g clip-path="url(#6fba8ec338)"><g clip-path="url(#739f8535a2)"><g clip-path="url(#fd1c02e8a2)"><rect x="-82.5" width="540" fill="#ff5722" height="539.999987" y="-82.499998" fill-opacity="1"/></g></g></g></g></g><g transform="matrix(1, 0, 0, 1, 112, 25)"><g clip-path="url(#c68945c632)"><g fill="#ffffff" fill-opacity="1"><g transform="translate(0.550622, 256.436508)"><g><path d="M 50.71875 -58.09375 L 50.71875 -61.3125 C 50.78125 -72.351562 51.769531 -81.148438 53.6875 -87.703125 C 55.613281 -94.265625 58.421875 -99.550781 62.109375 -103.5625 C 65.804688 -107.570312 70.304688 -111.25 75.609375 -114.59375 C 81.410156 -118.3125 86.296875 -122.363281 90.265625 -126.75 C 94.242188 -131.132812 96.234375 -136.414062 96.234375 -142.59375 C 96.234375 -149.15625 93.976562 -154.40625 89.46875 -158.34375 C 84.957031 -162.289062 79.515625 -164.265625 73.140625 -164.265625 C 66.960938 -164.265625 61.425781 -162.242188 56.53125 -158.203125 C 51.644531 -154.171875 49.046875 -148.304688 48.734375 -140.609375 L 10.125 -140.609375 C 10.4375 -153.222656 13.460938 -163.660156 19.203125 -171.921875 C 24.941406 -180.191406 32.539062 -186.34375 42 -190.375 C 51.46875 -194.414062 61.910156 -196.4375 73.328125 -196.4375 C 85.878906 -196.4375 96.976562 -194.367188 106.625 -190.234375 C 116.28125 -186.097656 123.851562 -180.117188 129.34375 -172.296875 C 134.832031 -164.484375 137.578125 -155.054688 137.578125 -144.015625 C 137.578125 -132.910156 134.910156 -123.664062 129.578125 -116.28125 C 124.253906 -108.90625 117.175781 -102.597656 108.34375 -97.359375 C 100.894531 -92.878906 95.4375 -88.050781 91.96875 -82.875 C 88.5 -77.707031 86.703125 -70.519531 86.578125 -61.3125 L 86.578125 -58.09375 Z M 69.359375 2.453125 C 63.109375 2.453125 57.742188 0.25 53.265625 -4.15625 C 48.785156 -8.570312 46.578125 -13.9375 46.640625 -20.25 C 46.578125 -26.425781 48.785156 -31.722656 53.265625 -36.140625 C 57.742188 -40.554688 63.109375 -42.765625 69.359375 -42.765625 C 75.410156 -42.765625 80.691406 -40.554688 85.203125 -36.140625 C 89.710938 -31.722656 92 -26.425781 92.0625 -20.25 C 92 -13.9375 89.710938 -8.570312 85.203125 -4.15625 C 80.691406 0.25 75.410156 2.453125 69.359375 2.453125 Z M 69.359375 2.453125 "/></g></g></g></g></g></svg>