<svg xmlns="http://www.w3.org/2000/svg" xmlns:xlink="http://www.w3.org/1999/xlink" width="64" zoomAndPan="magnify" viewBox="0 0 48 48" height="64" preserveAspectRatio="xMidYMid meet" version="1.0"><defs><g/><clipPath id="8bdce0b1a7"><path d="M 5.621094 5.132812 L 42.378906 5.132812 L 42.378906 41.890625 L 5.621094 41.890625 Z M 5.621094 5.132812 " clip-rule="nonzero"/></clipPath><clipPath id="be5479a67d"><path d="M 6.65625 5.132812 L 41.34375 5.132812 C 41.617188 5.132812 41.882812 5.242188 42.074219 5.433594 C 42.269531 5.628906 42.378906 5.890625 42.378906 6.164062 L 42.378906 40.855469 C 42.378906 41.128906 42.269531 41.390625 42.074219 41.585938 C 41.882812 41.78125 41.617188 41.890625 41.34375 41.890625 L 6.65625 41.890625 C 6.382812 41.890625 6.117188 41.78125 5.925781 41.585938 C 5.730469 41.390625 5.621094 41.128906 5.621094 40.855469 L 5.621094 6.164062 C 5.621094 5.890625 5.730469 5.628906 5.925781 5.433594 C 6.117188 5.242188 6.382812 5.132812 6.65625 5.132812 Z M 6.65625 5.132812 " clip-rule="nonzero"/></clipPath><clipPath id="4fcf1bd872"><path d="M 0.621094 0.132812 L 37.378906 0.132812 L 37.378906 36.890625 L 0.621094 36.890625 Z M 0.621094 0.132812 " clip-rule="nonzero"/></clipPath><clipPath id="361beabf6a"><path d="M 1.65625 0.132812 L 36.34375 0.132812 C 36.617188 0.132812 36.882812 0.242188 37.074219 0.433594 C 37.269531 0.628906 37.378906 0.890625 37.378906 1.164062 L 37.378906 35.855469 C 37.378906 36.128906 37.269531 36.390625 37.074219 36.585938 C 36.882812 36.78125 36.617188 36.890625 36.34375 36.890625 L 1.65625 36.890625 C 1.382812 36.890625 1.117188 36.78125 0.925781 36.585938 C 0.730469 36.390625 0.621094 36.128906 0.621094 35.855469 L 0.621094 1.164062 C 0.621094 0.890625 0.730469 0.628906 0.925781 0.433594 C 1.117188 0.242188 1.382812 0.132812 1.65625 0.132812 Z M 1.65625 0.132812 " clip-rule="nonzero"/></clipPath><clipPath id="fb33635a48"><rect x="0" width="38" y="0" height="37"/></clipPath><clipPath id="f51f8d7926"><path d="M 8.746094 8.257812 L 40.039062 8.257812 L 40.039062 39.550781 L 8.746094 39.550781 Z M 8.746094 8.257812 " clip-rule="nonzero"/></clipPath><clipPath id="b340cd9630"><path d="M 9.902344 8.378906 L 39.007812 8.378906 C 39.28125 8.378906 39.542969 8.488281 39.738281 8.683594 C 39.929688 8.875 40.039062 9.140625 40.039062 9.414062 L 40.039062 38.515625 C 40.039062 38.789062 39.929688 39.054688 39.738281 39.246094 C 39.542969 39.441406 39.28125 39.550781 39.007812 39.550781 L 9.902344 39.550781 C 9.628906 39.550781 9.367188 39.441406 9.171875 39.246094 C 8.976562 39.054688 8.871094 38.789062 8.871094 38.515625 L 8.871094 9.414062 C 8.871094 9.140625 8.976562 8.875 9.171875 8.683594 C 9.367188 8.488281 9.628906 8.378906 9.902344 8.378906 Z M 9.902344 8.378906 " clip-rule="nonzero"/></clipPath><clipPath id="7b2af32e1b"><path d="M 0.746094 0.257812 L 32.039062 0.257812 L 32.039062 31.550781 L 0.746094 31.550781 Z M 0.746094 0.257812 " clip-rule="nonzero"/></clipPath><clipPath id="bd0e2d41fa"><path d="M 1.902344 0.378906 L 31.007812 0.378906 C 31.28125 0.378906 31.542969 0.488281 31.738281 0.683594 C 31.929688 0.875 32.039062 1.140625 32.039062 1.414062 L 32.039062 30.515625 C 32.039062 30.789062 31.929688 31.054688 31.738281 31.246094 C 31.542969 31.441406 31.28125 31.550781 31.007812 31.550781 L 1.902344 31.550781 C 1.628906 31.550781 1.367188 31.441406 1.171875 31.246094 C 0.976562 31.054688 0.871094 30.789062 0.871094 30.515625 L 0.871094 1.414062 C 0.871094 1.140625 0.976562 0.875 1.171875 0.683594 C 1.367188 0.488281 1.628906 0.378906 1.902344 0.378906 Z M 1.902344 0.378906 " clip-rule="nonzero"/></clipPath><clipPath id="baf4b3e586"><rect x="0" width="33" y="0" height="32"/></clipPath><clipPath id="8138ee6a32"><rect x="0" width="15" y="0" height="32"/></clipPath><clipPath id="85b61e9cc1"><rect x="0" width="12" y="0" height="13"/></clipPath></defs><g clip-path="url(#8bdce0b1a7)"><g clip-path="url(#be5479a67d)"><g transform="matrix(1, 0, 0, 1, 5, 5)"><g clip-path="url(#fb33635a48)"><g clip-path="url(#4fcf1bd872)"><g clip-path="url(#361beabf6a)"><path fill="#ffffff" d="M 0.621094 0.132812 L 37.378906 0.132812 L 37.378906 36.890625 L 0.621094 36.890625 Z M 0.621094 0.132812 " fill-opacity="1" fill-rule="nonzero"/></g></g></g></g></g></g><g clip-path="url(#f51f8d7926)"><g clip-path="url(#b340cd9630)"><g transform="matrix(1, 0, 0, 1, 8, 8)"><g clip-path="url(#baf4b3e586)"><g clip-path="url(#7b2af32e1b)"><g clip-path="url(#bd0e2d41fa)"><path fill="#ff751f" d="M 0.871094 0.378906 L 32.039062 0.378906 L 32.039062 31.550781 L 0.871094 31.550781 Z M 0.871094 0.378906 " fill-opacity="1" fill-rule="nonzero"/></g></g></g></g></g></g><g transform="matrix(1, 0, 0, 1, 17, 8)"><g clip-path="url(#8138ee6a32)"><g fill="#ffffff" fill-opacity="1"><g transform="translate(0.401749, 24.945911)"><g><path d="M 4.765625 -5.46875 L 4.765625 -5.765625 C 4.773438 -6.804688 4.867188 -7.632812 5.046875 -8.25 C 5.234375 -8.875 5.5 -9.375 5.84375 -9.75 C 6.195312 -10.125 6.617188 -10.46875 7.109375 -10.78125 C 7.660156 -11.132812 8.125 -11.515625 8.5 -11.921875 C 8.875 -12.335938 9.0625 -12.835938 9.0625 -13.421875 C 9.0625 -14.035156 8.847656 -14.523438 8.421875 -14.890625 C 7.992188 -15.265625 7.484375 -15.453125 6.890625 -15.453125 C 6.304688 -15.453125 5.78125 -15.257812 5.3125 -14.875 C 4.851562 -14.5 4.613281 -13.953125 4.59375 -13.234375 L 0.953125 -13.234375 C 0.984375 -14.421875 1.269531 -15.398438 1.8125 -16.171875 C 2.351562 -16.953125 3.066406 -17.53125 3.953125 -17.90625 C 4.847656 -18.289062 5.832031 -18.484375 6.90625 -18.484375 C 8.082031 -18.484375 9.125 -18.289062 10.03125 -17.90625 C 10.945312 -17.519531 11.660156 -16.957031 12.171875 -16.21875 C 12.691406 -15.476562 12.953125 -14.585938 12.953125 -13.546875 C 12.953125 -12.503906 12.695312 -11.632812 12.1875 -10.9375 C 11.6875 -10.25 11.023438 -9.65625 10.203125 -9.15625 C 9.492188 -8.738281 8.976562 -8.285156 8.65625 -7.796875 C 8.332031 -7.316406 8.164062 -6.640625 8.15625 -5.765625 L 8.15625 -5.46875 Z M 6.53125 0.234375 C 5.9375 0.234375 5.425781 0.0234375 5 -0.390625 C 4.582031 -0.804688 4.378906 -1.3125 4.390625 -1.90625 C 4.378906 -2.488281 4.582031 -2.988281 5 -3.40625 C 5.425781 -3.820312 5.9375 -4.03125 6.53125 -4.03125 C 7.09375 -4.03125 7.585938 -3.820312 8.015625 -3.40625 C 8.441406 -2.988281 8.660156 -2.488281 8.671875 -1.90625 C 8.660156 -1.3125 8.441406 -0.804688 8.015625 -0.390625 C 7.585938 0.0234375 7.09375 0.234375 6.53125 0.234375 Z M 6.53125 0.234375 "/></g></g></g></g></g><g transform="matrix(1, 0, 0, 1, 33, 2)"><g clip-path="url(#85b61e9cc1)"><g fill="#000000" fill-opacity="1"><g transform="translate(5.19497, 10.759753)"><g><path d="M 1.71875 -1.6875 L 0.765625 -3.015625 L -0.546875 -2.078125 L -1.203125 -2.984375 L 0.109375 -3.921875 L -0.84375 -5.25 L 0.078125 -5.90625 L 1.03125 -4.578125 L 2.34375 -5.53125 L 3 -4.625 L 1.6875 -3.671875 L 2.640625 -2.34375 Z M 1.71875 -1.6875 "/></g></g></g></g></g></svg>