<svg xmlns="http://www.w3.org/2000/svg" xmlns:xlink="http://www.w3.org/1999/xlink" width="500" zoomAndPan="magnify" viewBox="0 0 375 149.999998" height="200" preserveAspectRatio="xMidYMid meet" version="1.0"><defs><g/><clipPath id="5321a444b5"><path d="M 8.800781 27.4375 L 103.929688 27.4375 L 103.929688 122.5625 L 8.800781 122.5625 Z M 8.800781 27.4375 " clip-rule="nonzero"/></clipPath><clipPath id="e78b593048"><path d="M 103.929688 39.4375 L 103.929688 110.5625 C 103.929688 117.191406 98.558594 122.5625 91.929688 122.5625 L 20.800781 122.5625 C 14.175781 122.5625 8.800781 117.191406 8.800781 110.5625 L 8.800781 39.4375 C 8.800781 32.808594 14.175781 27.4375 20.800781 27.4375 L 91.929688 27.4375 C 98.558594 27.4375 103.929688 32.808594 103.929688 39.4375 Z M 103.929688 39.4375 " clip-rule="nonzero"/></clipPath><clipPath id="5a663c414e"><path d="M 0.800781 0.4375 L 95.929688 0.4375 L 95.929688 95.5625 L 0.800781 95.5625 Z M 0.800781 0.4375 " clip-rule="nonzero"/></clipPath><clipPath id="10ede03932"><path d="M 95.929688 12.4375 L 95.929688 83.5625 C 95.929688 90.191406 90.558594 95.5625 83.929688 95.5625 L 12.800781 95.5625 C 6.175781 95.5625 0.800781 90.191406 0.800781 83.5625 L 0.800781 12.4375 C 0.800781 5.808594 6.175781 0.4375 12.800781 0.4375 L 83.929688 0.4375 C 90.558594 0.4375 95.929688 5.808594 95.929688 12.4375 Z M 95.929688 12.4375 " clip-rule="nonzero"/></clipPath><clipPath id="d387d3a462"><rect x="0" width="96" y="0" height="96"/></clipPath><clipPath id="120c2bf6ad"><rect x="0" width="40" y="0" height="83"/></clipPath></defs><g clip-path="url(#5321a444b5)"><g clip-path="url(#e78b593048)"><g transform="matrix(1, 0, 0, 1, 8, 27)"><g clip-path="url(#d387d3a462)"><g clip-path="url(#5a663c414e)"><g clip-path="url(#10ede03932)"><path fill="#ff5722" d="M 0.800781 0.4375 L 95.929688 0.4375 L 95.929688 95.5625 L 0.800781 95.5625 Z M 0.800781 0.4375 " fill-opacity="1" fill-rule="nonzero"/></g></g></g></g></g></g><g transform="matrix(1, 0, 0, 1, 37, 33)"><g clip-path="url(#120c2bf6ad)"><g fill="#ffffff" fill-opacity="1"><g transform="translate(0.352971, 65.829272)"><g><path d="M 12.859375 -14.734375 L 12.859375 -15.546875 C 12.878906 -18.347656 13.132812 -20.582031 13.625 -22.25 C 14.113281 -23.914062 14.820312 -25.253906 15.75 -26.265625 C 16.6875 -27.285156 17.828125 -28.21875 19.171875 -29.0625 C 20.648438 -30.007812 21.890625 -31.039062 22.890625 -32.15625 C 23.898438 -33.269531 24.40625 -34.609375 24.40625 -36.171875 C 24.40625 -37.835938 23.832031 -39.171875 22.6875 -40.171875 C 21.550781 -41.171875 20.175781 -41.671875 18.5625 -41.671875 C 16.988281 -41.671875 15.582031 -41.15625 14.34375 -40.125 C 13.101562 -39.101562 12.441406 -37.617188 12.359375 -35.671875 L 2.5625 -35.671875 C 2.644531 -38.867188 3.414062 -41.515625 4.875 -43.609375 C 6.332031 -45.710938 8.257812 -47.273438 10.65625 -48.296875 C 13.0625 -49.316406 15.710938 -49.828125 18.609375 -49.828125 C 21.785156 -49.828125 24.597656 -49.300781 27.046875 -48.25 C 29.492188 -47.207031 31.414062 -45.691406 32.8125 -43.703125 C 34.207031 -41.722656 34.90625 -39.332031 34.90625 -36.53125 C 34.90625 -33.71875 34.226562 -31.375 32.875 -29.5 C 31.519531 -27.625 29.722656 -26.023438 27.484375 -24.703125 C 25.597656 -23.566406 24.210938 -22.34375 23.328125 -21.03125 C 22.453125 -19.71875 22 -17.890625 21.96875 -15.546875 L 21.96875 -14.734375 Z M 17.59375 0.625 C 16.007812 0.625 14.648438 0.0664062 13.515625 -1.046875 C 12.378906 -2.171875 11.816406 -3.535156 11.828125 -5.140625 C 11.816406 -6.703125 12.378906 -8.039062 13.515625 -9.15625 C 14.648438 -10.28125 16.007812 -10.84375 17.59375 -10.84375 C 19.132812 -10.84375 20.472656 -10.28125 21.609375 -9.15625 C 22.753906 -8.039062 23.335938 -6.703125 23.359375 -5.140625 C 23.335938 -3.535156 22.753906 -2.171875 21.609375 -1.046875 C 20.472656 0.0664062 19.132812 0.625 17.59375 0.625 Z M 17.59375 0.625 "/></g></g></g></g></g><g fill="#000000" fill-opacity="1"><g transform="translate(110.838863, 85.186085)"><g><path d="M 43.890625 -21.8125 C 43.890625 -17.925781 43.269531 -14.503906 42.03125 -11.546875 C 40.800781 -8.585938 39.117188 -6.160156 36.984375 -4.265625 L 43.234375 3.578125 L 34.625 3.578125 L 31.109375 -0.75 C 28.734375 0.144531 26.179688 0.59375 23.453125 0.59375 C 19.578125 0.59375 16.097656 -0.285156 13.015625 -2.046875 C 9.929688 -3.804688 7.492188 -6.359375 5.703125 -9.703125 C 3.921875 -13.046875 3.03125 -17.082031 3.03125 -21.8125 C 3.03125 -26.570312 3.921875 -30.617188 5.703125 -33.953125 C 7.492188 -37.296875 9.929688 -39.84375 13.015625 -41.59375 C 16.097656 -43.351562 19.578125 -44.234375 23.453125 -44.234375 C 27.316406 -44.234375 30.789062 -43.351562 33.875 -41.59375 C 36.957031 -39.84375 39.394531 -37.296875 41.1875 -33.953125 C 42.988281 -30.617188 43.890625 -26.570312 43.890625 -21.8125 Z M 20.265625 -15.171875 L 28.109375 -15.171875 L 31.34375 -11.015625 C 32.351562 -12.222656 33.132812 -13.726562 33.6875 -15.53125 C 34.25 -17.332031 34.53125 -19.425781 34.53125 -21.8125 C 34.53125 -26.445312 33.519531 -29.984375 31.5 -32.421875 C 29.488281 -34.859375 26.804688 -36.078125 23.453125 -36.078125 C 20.109375 -36.078125 17.425781 -34.859375 15.40625 -32.421875 C 13.382812 -29.984375 12.375 -26.445312 12.375 -21.8125 C 12.375 -17.195312 13.382812 -13.664062 15.40625 -11.21875 C 17.425781 -8.78125 20.109375 -7.5625 23.453125 -7.5625 C 24.296875 -7.5625 25.09375 -7.640625 25.84375 -7.796875 Z M 20.265625 -15.171875 "/></g></g></g><g fill="#000000" fill-opacity="1"><g transform="translate(157.798947, 85.186085)"><g><path d="M 24.609375 -13.9375 L 24.609375 -32.734375 L 33.6875 -32.734375 L 33.6875 0 L 24.96875 0 L 24.96875 -5.9375 L 24.625 -5.9375 C 23.882812 -4.019531 22.660156 -2.476562 20.953125 -1.3125 C 19.242188 -0.15625 17.160156 0.421875 14.703125 0.421875 C 11.410156 0.421875 8.742188 -0.671875 6.703125 -2.859375 C 4.660156 -5.054688 3.632812 -8.066406 3.625 -11.890625 L 3.625 -32.734375 L 12.703125 -32.734375 L 12.703125 -13.515625 C 12.710938 -11.578125 13.226562 -10.046875 14.25 -8.921875 C 15.269531 -7.804688 16.640625 -7.25 18.359375 -7.25 C 19.992188 -7.25 21.445312 -7.816406 22.71875 -8.953125 C 23.988281 -10.085938 24.617188 -11.75 24.609375 -13.9375 Z M 24.609375 -13.9375 "/></g></g></g><g fill="#000000" fill-opacity="1"><g transform="translate(195.107073, 85.186085)"><g><path d="M 3.625 0 L 3.625 -32.734375 L 12.703125 -32.734375 L 12.703125 0 Z M 8.1875 -36.953125 C 6.851562 -36.953125 5.703125 -37.398438 4.734375 -38.296875 C 3.765625 -39.203125 3.28125 -40.285156 3.28125 -41.546875 C 3.28125 -42.804688 3.765625 -43.882812 4.734375 -44.78125 C 5.703125 -45.675781 6.851562 -46.125 8.1875 -46.125 C 9.539062 -46.125 10.695312 -45.675781 11.65625 -44.78125 C 12.625 -43.882812 13.109375 -42.804688 13.109375 -41.546875 C 13.109375 -40.285156 12.625 -39.203125 11.65625 -38.296875 C 10.695312 -37.398438 9.539062 -36.953125 8.1875 -36.953125 Z M 8.1875 -36.953125 "/></g></g></g><g fill="#000000" fill-opacity="1"><g transform="translate(211.428041, 85.186085)"><g><path d="M 3.453125 0 L 3.453125 -5.40625 L 19.46875 -25.25 L 19.46875 -25.484375 L 4 -25.484375 L 4 -32.734375 L 30.40625 -32.734375 L 30.40625 -26.828125 L 15.359375 -7.484375 L 15.359375 -7.25 L 30.953125 -7.25 L 30.953125 0 Z M 3.453125 0 "/></g></g></g><g fill="#000000" fill-opacity="1"><g transform="translate(245.73191, 85.186085)"><g><path d="M 30.8125 -43.640625 L 39.96875 -43.640625 L 39.96875 -14.78125 C 39.96875 -11.488281 39.191406 -8.695312 37.640625 -6.40625 C 36.097656 -4.113281 33.96875 -2.367188 31.25 -1.171875 C 28.53125 0.0234375 25.40625 0.625 21.875 0.625 C 18.351562 0.625 15.226562 0.0234375 12.5 -1.171875 C 9.78125 -2.367188 7.648438 -4.113281 6.109375 -6.40625 C 4.566406 -8.695312 3.796875 -11.488281 3.796875 -14.78125 L 3.796875 -43.640625 L 13.015625 -43.640625 L 13.015625 -15.109375 C 13.015625 -12.773438 13.851562 -10.941406 15.53125 -9.609375 C 17.21875 -8.273438 19.332031 -7.609375 21.875 -7.609375 C 24.46875 -7.609375 26.601562 -8.273438 28.28125 -9.609375 C 29.96875 -10.941406 30.8125 -12.773438 30.8125 -15.109375 Z M 30.8125 -43.640625 "/></g></g></g><g fill="#000000" fill-opacity="1"><g transform="translate(289.49598, 85.186085)"><g><path d="M 3.625 12.265625 L 3.625 -32.734375 L 12.578125 -32.734375 L 12.578125 -27.234375 L 12.96875 -27.234375 C 13.382812 -28.128906 13.96875 -29.03125 14.71875 -29.9375 C 15.476562 -30.84375 16.472656 -31.601562 17.703125 -32.21875 C 18.941406 -32.84375 20.46875 -33.15625 22.28125 -33.15625 C 24.6875 -33.15625 26.890625 -32.53125 28.890625 -31.28125 C 30.890625 -30.039062 32.5 -28.175781 33.71875 -25.6875 C 34.9375 -23.195312 35.546875 -20.078125 35.546875 -16.328125 C 35.546875 -12.671875 34.953125 -9.585938 33.765625 -7.078125 C 32.585938 -4.578125 31 -2.679688 29 -1.390625 C 27 -0.109375 24.753906 0.53125 22.265625 0.53125 C 20.503906 0.53125 19.007812 0.238281 17.78125 -0.34375 C 16.550781 -0.925781 15.546875 -1.660156 14.765625 -2.546875 C 13.992188 -3.429688 13.394531 -4.328125 12.96875 -5.234375 L 12.703125 -5.234375 L 12.703125 12.265625 Z M 12.5 -16.359375 C 12.5 -13.453125 13.097656 -11.113281 14.296875 -9.34375 C 15.503906 -7.570312 17.203125 -6.6875 19.390625 -6.6875 C 21.617188 -6.6875 23.320312 -7.582031 24.5 -9.375 C 25.675781 -11.175781 26.265625 -13.503906 26.265625 -16.359375 C 26.265625 -19.203125 25.675781 -21.507812 24.5 -23.28125 C 23.332031 -25.050781 21.628906 -25.9375 19.390625 -25.9375 C 17.191406 -25.9375 15.492188 -25.070312 14.296875 -23.34375 C 13.097656 -21.613281 12.5 -19.285156 12.5 -16.359375 Z M 12.5 -16.359375 "/></g></g></g><g fill="#000000" fill-opacity="1"><g transform="translate(327.443305, 85.186085)"><g><path d="M 16.359375 -2.578125 L 16.359375 -13.671875 L 5.265625 -13.671875 L 5.265625 -21.3125 L 16.359375 -21.3125 L 16.359375 -32.40625 L 23.984375 -32.40625 L 23.984375 -21.3125 L 35.09375 -21.3125 L 35.09375 -13.671875 L 23.984375 -13.671875 L 23.984375 -2.578125 Z M 16.359375 -2.578125 "/></g></g></g><g fill="#545454" fill-opacity="1"><g transform="translate(128.544151, 117.063914)"><g><path d="M 1.765625 0 L 1.765625 -14.546875 L 6.84375 -14.546875 C 7.851562 -14.546875 8.6875 -14.367188 9.34375 -14.015625 C 10.007812 -13.671875 10.503906 -13.207031 10.828125 -12.625 C 11.148438 -12.039062 11.3125 -11.394531 11.3125 -10.6875 C 11.3125 -10.0625 11.195312 -9.539062 10.96875 -9.125 C 10.75 -8.71875 10.460938 -8.394531 10.109375 -8.15625 C 9.753906 -7.925781 9.367188 -7.753906 8.953125 -7.640625 L 8.953125 -7.5 C 9.390625 -7.46875 9.832031 -7.3125 10.28125 -7.03125 C 10.738281 -6.75 11.117188 -6.34375 11.421875 -5.8125 C 11.722656 -5.28125 11.875 -4.628906 11.875 -3.859375 C 11.875 -3.128906 11.707031 -2.472656 11.375 -1.890625 C 11.039062 -1.304688 10.515625 -0.84375 9.796875 -0.5 C 9.085938 -0.164062 8.160156 0 7.015625 0 Z M 3.515625 -1.5625 L 7.015625 -1.5625 C 8.171875 -1.5625 8.988281 -1.785156 9.46875 -2.234375 C 9.957031 -2.679688 10.203125 -3.222656 10.203125 -3.859375 C 10.203125 -4.359375 10.078125 -4.816406 9.828125 -5.234375 C 9.578125 -5.648438 9.21875 -5.984375 8.75 -6.234375 C 8.28125 -6.492188 7.734375 -6.625 7.109375 -6.625 L 3.515625 -6.625 Z M 3.515625 -8.15625 L 6.796875 -8.15625 C 7.585938 -8.15625 8.253906 -8.382812 8.796875 -8.84375 C 9.347656 -9.300781 9.625 -9.914062 9.625 -10.6875 C 9.625 -11.320312 9.398438 -11.863281 8.953125 -12.3125 C 8.515625 -12.757812 7.8125 -12.984375 6.84375 -12.984375 L 3.515625 -12.984375 Z M 3.515625 -8.15625 "/></g></g></g><g fill="#545454" fill-opacity="1"><g transform="translate(141.950331, 117.063914)"><g><path d="M 5.96875 0.234375 C 4.976562 0.234375 4.113281 0 3.375 -0.46875 C 2.632812 -0.9375 2.054688 -1.59375 1.640625 -2.4375 C 1.222656 -3.28125 1.015625 -4.265625 1.015625 -5.390625 C 1.015625 -6.535156 1.222656 -7.53125 1.640625 -8.375 C 2.054688 -9.21875 2.632812 -9.875 3.375 -10.34375 C 4.113281 -10.8125 4.976562 -11.046875 5.96875 -11.046875 C 6.945312 -11.046875 7.804688 -10.8125 8.546875 -10.34375 C 9.296875 -9.875 9.875 -9.21875 10.28125 -8.375 C 10.695312 -7.53125 10.90625 -6.535156 10.90625 -5.390625 C 10.90625 -4.265625 10.695312 -3.28125 10.28125 -2.4375 C 9.875 -1.59375 9.296875 -0.9375 8.546875 -0.46875 C 7.804688 0 6.945312 0.234375 5.96875 0.234375 Z M 5.96875 -1.28125 C 6.71875 -1.28125 7.332031 -1.46875 7.8125 -1.84375 C 8.289062 -2.226562 8.644531 -2.734375 8.875 -3.359375 C 9.113281 -3.984375 9.234375 -4.660156 9.234375 -5.390625 C 9.234375 -6.117188 9.113281 -6.796875 8.875 -7.421875 C 8.644531 -8.054688 8.289062 -8.566406 7.8125 -8.953125 C 7.332031 -9.347656 6.71875 -9.546875 5.96875 -9.546875 C 5.21875 -9.546875 4.597656 -9.347656 4.109375 -8.953125 C 3.628906 -8.566406 3.273438 -8.054688 3.046875 -7.421875 C 2.816406 -6.796875 2.703125 -6.117188 2.703125 -5.390625 C 2.703125 -4.660156 2.816406 -3.984375 3.046875 -3.359375 C 3.273438 -2.734375 3.628906 -2.226562 4.109375 -1.84375 C 4.597656 -1.46875 5.21875 -1.28125 5.96875 -1.28125 Z M 5.96875 -1.28125 "/></g></g></g><g fill="#545454" fill-opacity="1"><g transform="translate(154.277403, 117.063914)"><g><path d="M 5.96875 0.234375 C 4.976562 0.234375 4.113281 0 3.375 -0.46875 C 2.632812 -0.9375 2.054688 -1.59375 1.640625 -2.4375 C 1.222656 -3.28125 1.015625 -4.265625 1.015625 -5.390625 C 1.015625 -6.535156 1.222656 -7.53125 1.640625 -8.375 C 2.054688 -9.21875 2.632812 -9.875 3.375 -10.34375 C 4.113281 -10.8125 4.976562 -11.046875 5.96875 -11.046875 C 6.945312 -11.046875 7.804688 -10.8125 8.546875 -10.34375 C 9.296875 -9.875 9.875 -9.21875 10.28125 -8.375 C 10.695312 -7.53125 10.90625 -6.535156 10.90625 -5.390625 C 10.90625 -4.265625 10.695312 -3.28125 10.28125 -2.4375 C 9.875 -1.59375 9.296875 -0.9375 8.546875 -0.46875 C 7.804688 0 6.945312 0.234375 5.96875 0.234375 Z M 5.96875 -1.28125 C 6.71875 -1.28125 7.332031 -1.46875 7.8125 -1.84375 C 8.289062 -2.226562 8.644531 -2.734375 8.875 -3.359375 C 9.113281 -3.984375 9.234375 -4.660156 9.234375 -5.390625 C 9.234375 -6.117188 9.113281 -6.796875 8.875 -7.421875 C 8.644531 -8.054688 8.289062 -8.566406 7.8125 -8.953125 C 7.332031 -9.347656 6.71875 -9.546875 5.96875 -9.546875 C 5.21875 -9.546875 4.597656 -9.347656 4.109375 -8.953125 C 3.628906 -8.566406 3.273438 -8.054688 3.046875 -7.421875 C 2.816406 -6.796875 2.703125 -6.117188 2.703125 -5.390625 C 2.703125 -4.660156 2.816406 -3.984375 3.046875 -3.359375 C 3.273438 -2.734375 3.628906 -2.226562 4.109375 -1.84375 C 4.597656 -1.46875 5.21875 -1.28125 5.96875 -1.28125 Z M 5.96875 -1.28125 "/></g></g></g><g fill="#545454" fill-opacity="1"><g transform="translate(166.604474, 117.063914)"><g><path d="M 9.265625 -8.46875 L 7.75 -8.046875 C 7.601562 -8.421875 7.359375 -8.773438 7.015625 -9.109375 C 6.671875 -9.441406 6.128906 -9.609375 5.390625 -9.609375 C 4.722656 -9.609375 4.164062 -9.453125 3.71875 -9.140625 C 3.28125 -8.835938 3.0625 -8.453125 3.0625 -7.984375 C 3.0625 -7.566406 3.210938 -7.238281 3.515625 -7 C 3.828125 -6.757812 4.300781 -6.554688 4.9375 -6.390625 L 6.5625 -6 C 8.488281 -5.519531 9.453125 -4.535156 9.453125 -3.046875 C 9.453125 -2.421875 9.273438 -1.859375 8.921875 -1.359375 C 8.566406 -0.867188 8.066406 -0.476562 7.421875 -0.1875 C 6.785156 0.09375 6.046875 0.234375 5.203125 0.234375 C 4.085938 0.234375 3.164062 -0.00390625 2.4375 -0.484375 C 1.707031 -0.972656 1.242188 -1.679688 1.046875 -2.609375 L 2.640625 -3.015625 C 2.941406 -1.835938 3.785156 -1.25 5.171875 -1.25 C 5.953125 -1.25 6.570312 -1.414062 7.03125 -1.75 C 7.5 -2.082031 7.734375 -2.484375 7.734375 -2.953125 C 7.734375 -3.722656 7.191406 -4.234375 6.109375 -4.484375 L 4.296875 -4.921875 C 3.296875 -5.148438 2.5625 -5.515625 2.09375 -6.015625 C 1.625 -6.515625 1.390625 -7.140625 1.390625 -7.890625 C 1.390625 -8.515625 1.5625 -9.0625 1.90625 -9.53125 C 2.257812 -10 2.738281 -10.367188 3.34375 -10.640625 C 3.945312 -10.910156 4.628906 -11.046875 5.390625 -11.046875 C 6.472656 -11.046875 7.320312 -10.804688 7.9375 -10.328125 C 8.5625 -9.859375 9.003906 -9.238281 9.265625 -8.46875 Z M 9.265625 -8.46875 "/></g></g></g><g fill="#545454" fill-opacity="1"><g transform="translate(177.454857, 117.063914)"><g><path d="M 6.28125 -10.90625 L 6.28125 -9.484375 L 3.953125 -9.484375 L 3.953125 -3.125 C 3.953125 -2.65625 4.019531 -2.300781 4.15625 -2.0625 C 4.300781 -1.832031 4.484375 -1.675781 4.703125 -1.59375 C 4.921875 -1.519531 5.148438 -1.484375 5.390625 -1.484375 C 5.578125 -1.484375 5.726562 -1.492188 5.84375 -1.515625 C 5.96875 -1.535156 6.066406 -1.550781 6.140625 -1.5625 L 6.484375 -0.0625 C 6.367188 -0.0195312 6.207031 0.0195312 6 0.0625 C 5.800781 0.113281 5.546875 0.140625 5.234375 0.140625 C 4.753906 0.140625 4.285156 0.0390625 3.828125 -0.15625 C 3.378906 -0.363281 3.003906 -0.675781 2.703125 -1.09375 C 2.410156 -1.507812 2.265625 -2.035156 2.265625 -2.671875 L 2.265625 -9.484375 L 0.625 -9.484375 L 0.625 -10.90625 L 2.265625 -10.90625 L 2.265625 -13.515625 L 3.953125 -13.515625 L 3.953125 -10.90625 Z M 6.28125 -10.90625 "/></g></g></g><g fill="#545454" fill-opacity="1"><g transform="translate(185.124687, 117.063914)"><g/></g></g><g fill="#545454" fill-opacity="1"><g transform="translate(191.147449, 117.063914)"><g><path d="M 0.515625 -14.546875 L 2.53125 -14.546875 L 6.5625 -7.75 L 6.734375 -7.75 L 10.765625 -14.546875 L 12.78125 -14.546875 L 7.53125 -6 L 7.53125 0 L 5.765625 0 L 5.765625 -6 Z M 0.515625 -14.546875 "/></g></g></g><g fill="#545454" fill-opacity="1"><g transform="translate(203.303912, 117.063914)"><g><path d="M 5.96875 0.234375 C 4.976562 0.234375 4.113281 0 3.375 -0.46875 C 2.632812 -0.9375 2.054688 -1.59375 1.640625 -2.4375 C 1.222656 -3.28125 1.015625 -4.265625 1.015625 -5.390625 C 1.015625 -6.535156 1.222656 -7.53125 1.640625 -8.375 C 2.054688 -9.21875 2.632812 -9.875 3.375 -10.34375 C 4.113281 -10.8125 4.976562 -11.046875 5.96875 -11.046875 C 6.945312 -11.046875 7.804688 -10.8125 8.546875 -10.34375 C 9.296875 -9.875 9.875 -9.21875 10.28125 -8.375 C 10.695312 -7.53125 10.90625 -6.535156 10.90625 -5.390625 C 10.90625 -4.265625 10.695312 -3.28125 10.28125 -2.4375 C 9.875 -1.59375 9.296875 -0.9375 8.546875 -0.46875 C 7.804688 0 6.945312 0.234375 5.96875 0.234375 Z M 5.96875 -1.28125 C 6.71875 -1.28125 7.332031 -1.46875 7.8125 -1.84375 C 8.289062 -2.226562 8.644531 -2.734375 8.875 -3.359375 C 9.113281 -3.984375 9.234375 -4.660156 9.234375 -5.390625 C 9.234375 -6.117188 9.113281 -6.796875 8.875 -7.421875 C 8.644531 -8.054688 8.289062 -8.566406 7.8125 -8.953125 C 7.332031 -9.347656 6.71875 -9.546875 5.96875 -9.546875 C 5.21875 -9.546875 4.597656 -9.347656 4.109375 -8.953125 C 3.628906 -8.566406 3.273438 -8.054688 3.046875 -7.421875 C 2.816406 -6.796875 2.703125 -6.117188 2.703125 -5.390625 C 2.703125 -4.660156 2.816406 -3.984375 3.046875 -3.359375 C 3.273438 -2.734375 3.628906 -2.226562 4.109375 -1.84375 C 4.597656 -1.46875 5.21875 -1.28125 5.96875 -1.28125 Z M 5.96875 -1.28125 "/></g></g></g><g fill="#545454" fill-opacity="1"><g transform="translate(215.630983, 117.063914)"><g><path d="M 8.40625 -4.453125 L 8.40625 -10.90625 L 10.078125 -10.90625 L 10.078125 0 L 8.40625 0 L 8.40625 -1.84375 L 8.296875 -1.84375 C 8.035156 -1.289062 7.632812 -0.820312 7.09375 -0.4375 C 6.5625 -0.0507812 5.882812 0.140625 5.0625 0.140625 C 4.03125 0.140625 3.179688 -0.195312 2.515625 -0.875 C 1.859375 -1.550781 1.53125 -2.585938 1.53125 -3.984375 L 1.53125 -10.90625 L 3.203125 -10.90625 L 3.203125 -4.09375 C 3.203125 -3.289062 3.425781 -2.65625 3.875 -2.1875 C 4.320312 -1.71875 4.894531 -1.484375 5.59375 -1.484375 C 6.007812 -1.484375 6.429688 -1.585938 6.859375 -1.796875 C 7.296875 -2.003906 7.660156 -2.328125 7.953125 -2.765625 C 8.253906 -3.210938 8.40625 -3.773438 8.40625 -4.453125 Z M 8.40625 -4.453125 "/></g></g></g><g fill="#545454" fill-opacity="1"><g transform="translate(227.645677, 117.063914)"><g><path d="M 1.53125 0 L 1.53125 -10.90625 L 3.15625 -10.90625 L 3.15625 -9.265625 L 3.265625 -9.265625 C 3.460938 -9.804688 3.820312 -10.242188 4.34375 -10.578125 C 4.863281 -10.910156 5.453125 -11.078125 6.109375 -11.078125 C 6.410156 -11.078125 6.675781 -11.039062 6.90625 -10.96875 C 7.132812 -10.894531 7.332031 -10.800781 7.5 -10.6875 L 6.9375 -9.265625 C 6.8125 -9.328125 6.671875 -9.375 6.515625 -9.40625 C 6.359375 -9.4375 6.175781 -9.453125 5.96875 -9.453125 C 5.164062 -9.453125 4.503906 -9.207031 3.984375 -8.71875 C 3.460938 -8.238281 3.203125 -7.632812 3.203125 -6.90625 L 3.203125 0 Z M 1.53125 0 "/></g></g></g><g fill="#545454" fill-opacity="1"><g transform="translate(235.713075, 117.063914)"><g/></g></g><g fill="#545454" fill-opacity="1"><g transform="translate(241.735837, 117.063914)"><g><path d="M 1.765625 0 L 1.765625 -14.546875 L 3.515625 -14.546875 L 3.515625 -7.328125 L 3.6875 -7.328125 L 10.234375 -14.546875 L 12.53125 -14.546875 L 6.421875 -7.984375 L 12.53125 0 L 10.390625 0 L 5.34375 -6.765625 L 3.515625 -4.71875 L 3.515625 0 Z M 1.765625 0 "/></g></g></g><g fill="#545454" fill-opacity="1"><g transform="translate(255.170422, 117.063914)"><g><path d="M 3.203125 -6.5625 L 3.203125 0 L 1.53125 0 L 1.53125 -10.90625 L 3.15625 -10.90625 L 3.15625 -9.203125 L 3.296875 -9.203125 C 3.546875 -9.753906 3.929688 -10.195312 4.453125 -10.53125 C 4.972656 -10.875 5.648438 -11.046875 6.484375 -11.046875 C 7.578125 -11.046875 8.460938 -10.707031 9.140625 -10.03125 C 9.828125 -9.351562 10.171875 -8.320312 10.171875 -6.9375 L 10.171875 0 L 8.5 0 L 8.5 -6.8125 C 8.5 -7.675781 8.273438 -8.347656 7.828125 -8.828125 C 7.378906 -9.304688 6.769531 -9.546875 6 -9.546875 C 5.195312 -9.546875 4.53125 -9.285156 4 -8.765625 C 3.46875 -8.242188 3.203125 -7.507812 3.203125 -6.5625 Z M 3.203125 -6.5625 "/></g></g></g><g fill="#545454" fill-opacity="1"><g transform="translate(267.270305, 117.063914)"><g><path d="M 5.96875 0.234375 C 4.976562 0.234375 4.113281 0 3.375 -0.46875 C 2.632812 -0.9375 2.054688 -1.59375 1.640625 -2.4375 C 1.222656 -3.28125 1.015625 -4.265625 1.015625 -5.390625 C 1.015625 -6.535156 1.222656 -7.53125 1.640625 -8.375 C 2.054688 -9.21875 2.632812 -9.875 3.375 -10.34375 C 4.113281 -10.8125 4.976562 -11.046875 5.96875 -11.046875 C 6.945312 -11.046875 7.804688 -10.8125 8.546875 -10.34375 C 9.296875 -9.875 9.875 -9.21875 10.28125 -8.375 C 10.695312 -7.53125 10.90625 -6.535156 10.90625 -5.390625 C 10.90625 -4.265625 10.695312 -3.28125 10.28125 -2.4375 C 9.875 -1.59375 9.296875 -0.9375 8.546875 -0.46875 C 7.804688 0 6.945312 0.234375 5.96875 0.234375 Z M 5.96875 -1.28125 C 6.71875 -1.28125 7.332031 -1.46875 7.8125 -1.84375 C 8.289062 -2.226562 8.644531 -2.734375 8.875 -3.359375 C 9.113281 -3.984375 9.234375 -4.660156 9.234375 -5.390625 C 9.234375 -6.117188 9.113281 -6.796875 8.875 -7.421875 C 8.644531 -8.054688 8.289062 -8.566406 7.8125 -8.953125 C 7.332031 -9.347656 6.71875 -9.546875 5.96875 -9.546875 C 5.21875 -9.546875 4.597656 -9.347656 4.109375 -8.953125 C 3.628906 -8.566406 3.273438 -8.054688 3.046875 -7.421875 C 2.816406 -6.796875 2.703125 -6.117188 2.703125 -5.390625 C 2.703125 -4.660156 2.816406 -3.984375 3.046875 -3.359375 C 3.273438 -2.734375 3.628906 -2.226562 4.109375 -1.84375 C 4.597656 -1.46875 5.21875 -1.28125 5.96875 -1.28125 Z M 5.96875 -1.28125 "/></g></g></g><g fill="#545454" fill-opacity="1"><g transform="translate(279.228156, 117.063914)"><g><path d="M 4 0 L 0.6875 -10.90625 L 2.4375 -10.90625 L 4.796875 -2.5625 L 4.921875 -2.5625 L 7.25 -10.90625 L 9.03125 -10.90625 L 11.328125 -2.578125 L 11.453125 -2.578125 L 13.8125 -10.90625 L 15.5625 -10.90625 L 12.25 0 L 10.59375 0 L 8.203125 -8.375 L 8.046875 -8.375 L 5.65625 0 Z M 4 0 "/></g></g></g><g fill="#545454" fill-opacity="1"><g transform="translate(295.871687, 117.063914)"><g><path d="M 3.203125 -14.546875 L 3.203125 0 L 1.53125 0 L 1.53125 -14.546875 Z M 3.203125 -14.546875 "/></g></g></g><g fill="#545454" fill-opacity="1"><g transform="translate(301.014112, 117.063914)"><g><path d="M 6.109375 0.234375 C 5.054688 0.234375 4.148438 0 3.390625 -0.46875 C 2.628906 -0.9375 2.039062 -1.585938 1.625 -2.421875 C 1.21875 -3.265625 1.015625 -4.25 1.015625 -5.375 C 1.015625 -6.488281 1.21875 -7.472656 1.625 -8.328125 C 2.039062 -9.179688 2.613281 -9.847656 3.34375 -10.328125 C 4.082031 -10.804688 4.945312 -11.046875 5.9375 -11.046875 C 6.507812 -11.046875 7.070312 -10.953125 7.625 -10.765625 C 8.175781 -10.578125 8.675781 -10.269531 9.125 -9.84375 C 9.582031 -9.425781 9.945312 -8.867188 10.21875 -8.171875 C 10.488281 -7.472656 10.625 -6.613281 10.625 -5.59375 L 10.625 -4.890625 L 2.703125 -4.890625 C 2.742188 -3.722656 3.070312 -2.828125 3.6875 -2.203125 C 4.3125 -1.585938 5.117188 -1.28125 6.109375 -1.28125 C 6.765625 -1.28125 7.328125 -1.421875 7.796875 -1.703125 C 8.273438 -1.984375 8.617188 -2.410156 8.828125 -2.984375 L 10.453125 -2.53125 C 10.203125 -1.707031 9.691406 -1.039062 8.921875 -0.53125 C 8.148438 -0.0195312 7.210938 0.234375 6.109375 0.234375 Z M 2.703125 -6.328125 L 8.921875 -6.328125 C 8.921875 -7.253906 8.648438 -8.019531 8.109375 -8.625 C 7.566406 -9.238281 6.84375 -9.546875 5.9375 -9.546875 C 5.300781 -9.546875 4.75 -9.394531 4.28125 -9.09375 C 3.8125 -8.800781 3.441406 -8.410156 3.171875 -7.921875 C 2.898438 -7.429688 2.742188 -6.898438 2.703125 -6.328125 Z M 2.703125 -6.328125 "/></g></g></g><g fill="#545454" fill-opacity="1"><g transform="translate(313.057198, 117.063914)"><g><path d="M 5.65625 0.234375 C 4.75 0.234375 3.945312 0.00390625 3.25 -0.453125 C 2.550781 -0.921875 2.003906 -1.578125 1.609375 -2.421875 C 1.210938 -3.265625 1.015625 -4.265625 1.015625 -5.421875 C 1.015625 -6.566406 1.210938 -7.5625 1.609375 -8.40625 C 2.003906 -9.25 2.550781 -9.898438 3.25 -10.359375 C 3.945312 -10.816406 4.757812 -11.046875 5.6875 -11.046875 C 6.394531 -11.046875 6.953125 -10.925781 7.359375 -10.6875 C 7.773438 -10.457031 8.09375 -10.191406 8.3125 -9.890625 C 8.539062 -9.597656 8.710938 -9.359375 8.828125 -9.171875 L 8.984375 -9.171875 L 8.984375 -14.546875 L 10.65625 -14.546875 L 10.65625 0 L 9.03125 0 L 9.03125 -1.671875 L 8.828125 -1.671875 C 8.710938 -1.472656 8.539062 -1.222656 8.3125 -0.921875 C 8.082031 -0.617188 7.753906 -0.347656 7.328125 -0.109375 C 6.910156 0.117188 6.351562 0.234375 5.65625 0.234375 Z M 5.875 -1.28125 C 6.882812 -1.28125 7.65625 -1.664062 8.1875 -2.4375 C 8.726562 -3.207031 9 -4.210938 9 -5.453125 C 9 -6.671875 8.734375 -7.65625 8.203125 -8.40625 C 7.679688 -9.164062 6.90625 -9.546875 5.875 -9.546875 C 5.164062 -9.546875 4.578125 -9.363281 4.109375 -9 C 3.640625 -8.632812 3.285156 -8.144531 3.046875 -7.53125 C 2.816406 -6.914062 2.703125 -6.222656 2.703125 -5.453125 C 2.703125 -4.679688 2.820312 -3.976562 3.0625 -3.34375 C 3.300781 -2.707031 3.65625 -2.203125 4.125 -1.828125 C 4.59375 -1.460938 5.175781 -1.28125 5.875 -1.28125 Z M 5.875 -1.28125 "/></g></g></g><g fill="#545454" fill-opacity="1"><g transform="translate(325.867016, 117.063914)"><g><path d="M 5.9375 4.3125 C 4.71875 4.3125 3.753906 4.085938 3.046875 3.640625 C 2.335938 3.203125 1.816406 2.695312 1.484375 2.125 L 2.8125 1.1875 C 2.96875 1.382812 3.160156 1.613281 3.390625 1.875 C 3.617188 2.132812 3.9375 2.359375 4.34375 2.546875 C 4.75 2.742188 5.28125 2.84375 5.9375 2.84375 C 6.820312 2.84375 7.550781 2.628906 8.125 2.203125 C 8.695312 1.773438 8.984375 1.109375 8.984375 0.203125 L 8.984375 -2.015625 L 8.828125 -2.015625 C 8.710938 -1.816406 8.539062 -1.570312 8.3125 -1.28125 C 8.082031 -0.988281 7.757812 -0.726562 7.34375 -0.5 C 6.925781 -0.28125 6.363281 -0.171875 5.65625 -0.171875 C 4.769531 -0.171875 3.976562 -0.378906 3.28125 -0.796875 C 2.582031 -1.210938 2.03125 -1.816406 1.625 -2.609375 C 1.21875 -3.410156 1.015625 -4.378906 1.015625 -5.515625 C 1.015625 -6.628906 1.210938 -7.601562 1.609375 -8.4375 C 2.003906 -9.269531 2.550781 -9.910156 3.25 -10.359375 C 3.945312 -10.816406 4.757812 -11.046875 5.6875 -11.046875 C 6.394531 -11.046875 6.957031 -10.925781 7.375 -10.6875 C 7.789062 -10.457031 8.109375 -10.191406 8.328125 -9.890625 C 8.554688 -9.597656 8.734375 -9.359375 8.859375 -9.171875 L 9.03125 -9.171875 L 9.03125 -10.90625 L 10.65625 -10.90625 L 10.65625 0.3125 C 10.65625 1.25 10.441406 2.007812 10.015625 2.59375 C 9.585938 3.1875 9.019531 3.617188 8.3125 3.890625 C 7.601562 4.171875 6.8125 4.3125 5.9375 4.3125 Z M 5.875 -1.671875 C 6.882812 -1.671875 7.65625 -2.015625 8.1875 -2.703125 C 8.726562 -3.390625 9 -4.335938 9 -5.546875 C 9 -6.722656 8.734375 -7.679688 8.203125 -8.421875 C 7.679688 -9.171875 6.90625 -9.546875 5.875 -9.546875 C 5.164062 -9.546875 4.578125 -9.363281 4.109375 -9 C 3.640625 -8.644531 3.285156 -8.160156 3.046875 -7.546875 C 2.816406 -6.941406 2.703125 -6.273438 2.703125 -5.546875 C 2.703125 -4.398438 2.96875 -3.46875 3.5 -2.75 C 4.03125 -2.03125 4.820312 -1.671875 5.875 -1.671875 Z M 5.875 -1.671875 "/></g></g></g><g fill="#545454" fill-opacity="1"><g transform="translate(338.44968, 117.063914)"><g><path d="M 6.109375 0.234375 C 5.054688 0.234375 4.148438 0 3.390625 -0.46875 C 2.628906 -0.9375 2.039062 -1.585938 1.625 -2.421875 C 1.21875 -3.265625 1.015625 -4.25 1.015625 -5.375 C 1.015625 -6.488281 1.21875 -7.472656 1.625 -8.328125 C 2.039062 -9.179688 2.613281 -9.847656 3.34375 -10.328125 C 4.082031 -10.804688 4.945312 -11.046875 5.9375 -11.046875 C 6.507812 -11.046875 7.070312 -10.953125 7.625 -10.765625 C 8.175781 -10.578125 8.675781 -10.269531 9.125 -9.84375 C 9.582031 -9.425781 9.945312 -8.867188 10.21875 -8.171875 C 10.488281 -7.472656 10.625 -6.613281 10.625 -5.59375 L 10.625 -4.890625 L 2.703125 -4.890625 C 2.742188 -3.722656 3.070312 -2.828125 3.6875 -2.203125 C 4.3125 -1.585938 5.117188 -1.28125 6.109375 -1.28125 C 6.765625 -1.28125 7.328125 -1.421875 7.796875 -1.703125 C 8.273438 -1.984375 8.617188 -2.410156 8.828125 -2.984375 L 10.453125 -2.53125 C 10.203125 -1.707031 9.691406 -1.039062 8.921875 -0.53125 C 8.148438 -0.0195312 7.210938 0.234375 6.109375 0.234375 Z M 2.703125 -6.328125 L 8.921875 -6.328125 C 8.921875 -7.253906 8.648438 -8.019531 8.109375 -8.625 C 7.566406 -9.238281 6.84375 -9.546875 5.9375 -9.546875 C 5.300781 -9.546875 4.75 -9.394531 4.28125 -9.09375 C 3.8125 -8.800781 3.441406 -8.410156 3.171875 -7.921875 C 2.898438 -7.429688 2.742188 -6.898438 2.703125 -6.328125 Z M 2.703125 -6.328125 "/></g></g></g></svg>