<svg xmlns="http://www.w3.org/2000/svg" xmlns:xlink="http://www.w3.org/1999/xlink" width="500" zoomAndPan="magnify" viewBox="0 0 375 149.999998" height="200" preserveAspectRatio="xMidYMid meet" version="1.0"><defs><g/><clipPath id="d364cf83ce"><path d="M 44.242188 39.820312 L 114.601562 39.820312 L 114.601562 110.179688 L 44.242188 110.179688 Z M 44.242188 39.820312 " clip-rule="nonzero"/></clipPath><clipPath id="cf2da4794b"><path d="M 47.542969 39.820312 L 111.300781 39.820312 C 112.175781 39.820312 113.015625 40.167969 113.632812 40.785156 C 114.253906 41.40625 114.601562 42.246094 114.601562 43.121094 L 114.601562 106.878906 C 114.601562 107.753906 114.253906 108.59375 113.632812 109.214844 C 113.015625 109.832031 112.175781 110.179688 111.300781 110.179688 L 47.542969 110.179688 C 46.664062 110.179688 45.828125 109.832031 45.207031 109.214844 C 44.589844 108.59375 44.242188 107.753906 44.242188 106.878906 L 44.242188 43.121094 C 44.242188 42.246094 44.589844 41.40625 45.207031 40.785156 C 45.828125 40.167969 46.664062 39.820312 47.542969 39.820312 Z M 47.542969 39.820312 " clip-rule="nonzero"/></clipPath><clipPath id="af060b6fb8"><path d="M 0.242188 0.820312 L 70.601562 0.820312 L 70.601562 71.179688 L 0.242188 71.179688 Z M 0.242188 0.820312 " clip-rule="nonzero"/></clipPath><clipPath id="029ea9ef9a"><path d="M 3.542969 0.820312 L 67.300781 0.820312 C 68.175781 0.820312 69.015625 1.167969 69.632812 1.785156 C 70.253906 2.40625 70.601562 3.246094 70.601562 4.121094 L 70.601562 67.878906 C 70.601562 68.753906 70.253906 69.59375 69.632812 70.214844 C 69.015625 70.832031 68.175781 71.179688 67.300781 71.179688 L 3.542969 71.179688 C 2.664062 71.179688 1.828125 70.832031 1.207031 70.214844 C 0.589844 69.59375 0.242188 68.753906 0.242188 67.878906 L 0.242188 4.121094 C 0.242188 3.246094 0.589844 2.40625 1.207031 1.785156 C 1.828125 1.167969 2.664062 0.820312 3.542969 0.820312 Z M 3.542969 0.820312 " clip-rule="nonzero"/></clipPath><clipPath id="ad25b4c9fc"><rect x="0" width="71" y="0" height="72"/></clipPath></defs><rect x="-37.5" width="450" fill="#ffffff" y="-15" height="179.999997" fill-opacity="1"/><rect x="-37.5" width="450" fill="#ffffff" y="-15" height="179.999997" fill-opacity="1"/><g clip-path="url(#d364cf83ce)"><g clip-path="url(#cf2da4794b)"><g transform="matrix(1, 0, 0, 1, 44, 39)"><g clip-path="url(#ad25b4c9fc)"><g clip-path="url(#af060b6fb8)"><g clip-path="url(#029ea9ef9a)"><path fill="#ff751f" d="M 0.242188 0.820312 L 70.601562 0.820312 L 70.601562 71.179688 L 0.242188 71.179688 Z M 0.242188 0.820312 " fill-opacity="1" fill-rule="nonzero"/></g></g></g></g></g></g><g fill="#ffffff" fill-opacity="1"><g transform="translate(65.358566, 92.624997)"><g><path d="M 9.515625 -10.90625 L 9.515625 -11.5 C 9.523438 -13.570312 9.710938 -15.222656 10.078125 -16.453125 C 10.441406 -17.691406 10.96875 -18.6875 11.65625 -19.4375 C 12.351562 -20.1875 13.195312 -20.875 14.1875 -21.5 C 15.28125 -22.195312 16.195312 -22.957031 16.9375 -23.78125 C 17.6875 -24.601562 18.0625 -25.597656 18.0625 -26.765625 C 18.0625 -27.992188 17.632812 -28.976562 16.78125 -29.71875 C 15.9375 -30.457031 14.914062 -30.828125 13.71875 -30.828125 C 12.5625 -30.828125 11.523438 -30.445312 10.609375 -29.6875 C 9.691406 -28.925781 9.203125 -27.828125 9.140625 -26.390625 L 1.90625 -26.390625 C 1.957031 -28.753906 2.519531 -30.710938 3.59375 -32.265625 C 4.675781 -33.816406 6.101562 -34.96875 7.875 -35.71875 C 9.65625 -36.476562 11.617188 -36.859375 13.765625 -36.859375 C 16.117188 -36.859375 18.203125 -36.46875 20.015625 -35.6875 C 21.828125 -34.914062 23.242188 -33.796875 24.265625 -32.328125 C 25.296875 -30.859375 25.8125 -29.09375 25.8125 -27.03125 C 25.8125 -24.945312 25.3125 -23.210938 24.3125 -21.828125 C 23.3125 -20.441406 21.984375 -19.253906 20.328125 -18.265625 C 18.929688 -17.429688 17.90625 -16.523438 17.25 -15.546875 C 16.601562 -14.578125 16.269531 -13.226562 16.25 -11.5 L 16.25 -10.90625 Z M 13.015625 0.46875 C 11.835938 0.46875 10.828125 0.0507812 9.984375 -0.78125 C 9.148438 -1.613281 8.738281 -2.617188 8.75 -3.796875 C 8.738281 -4.960938 9.148438 -5.957031 9.984375 -6.78125 C 10.828125 -7.613281 11.835938 -8.03125 13.015625 -8.03125 C 14.148438 -8.03125 15.140625 -7.613281 15.984375 -6.78125 C 16.835938 -5.957031 17.269531 -4.960938 17.28125 -3.796875 C 17.269531 -2.617188 16.835938 -1.613281 15.984375 -0.78125 C 15.140625 0.0507812 14.148438 0.46875 13.015625 0.46875 Z M 13.015625 0.46875 "/></g></g></g><g fill="#000000" fill-opacity="1"><g transform="translate(129.241066, 92.624997)"><g><path d="M 36.578125 -18.1875 C 36.578125 -14.9375 36.0625 -12.082031 35.03125 -9.625 C 34 -7.164062 32.597656 -5.140625 30.828125 -3.546875 L 36.03125 2.984375 L 28.859375 2.984375 L 25.921875 -0.625 C 23.941406 0.125 21.816406 0.5 19.546875 0.5 C 16.316406 0.5 13.414062 -0.234375 10.84375 -1.703125 C 8.28125 -3.171875 6.25 -5.296875 4.75 -8.078125 C 3.257812 -10.867188 2.515625 -14.238281 2.515625 -18.1875 C 2.515625 -22.144531 3.257812 -25.515625 4.75 -28.296875 C 6.25 -31.078125 8.28125 -33.195312 10.84375 -34.65625 C 13.414062 -36.125 16.316406 -36.859375 19.546875 -36.859375 C 22.765625 -36.859375 25.65625 -36.125 28.21875 -34.65625 C 30.789062 -33.195312 32.828125 -31.078125 34.328125 -28.296875 C 35.828125 -25.515625 36.578125 -22.144531 36.578125 -18.1875 Z M 16.890625 -12.640625 L 23.421875 -12.640625 L 26.125 -9.1875 C 26.957031 -10.1875 27.609375 -11.4375 28.078125 -12.9375 C 28.546875 -14.445312 28.78125 -16.195312 28.78125 -18.1875 C 28.78125 -22.039062 27.9375 -24.984375 26.25 -27.015625 C 24.570312 -29.046875 22.335938 -30.0625 19.546875 -30.0625 C 16.753906 -30.0625 14.515625 -29.046875 12.828125 -27.015625 C 11.148438 -24.984375 10.3125 -22.039062 10.3125 -18.1875 C 10.3125 -14.332031 11.148438 -11.382812 12.828125 -9.34375 C 14.515625 -7.3125 16.753906 -6.296875 19.546875 -6.296875 C 20.242188 -6.296875 20.90625 -6.363281 21.53125 -6.5 Z M 16.890625 -12.640625 "/></g></g></g><g fill="#000000" fill-opacity="1"><g transform="translate(168.368288, 92.624997)"><g><path d="M 20.515625 -11.609375 L 20.515625 -27.265625 L 28.078125 -27.265625 L 28.078125 0 L 20.8125 0 L 20.8125 -4.953125 L 20.53125 -4.953125 C 19.914062 -3.359375 18.894531 -2.070312 17.46875 -1.09375 C 16.039062 -0.125 14.300781 0.359375 12.25 0.359375 C 9.5 0.359375 7.273438 -0.550781 5.578125 -2.375 C 3.878906 -4.207031 3.023438 -6.71875 3.015625 -9.90625 L 3.015625 -27.265625 L 10.578125 -27.265625 L 10.578125 -11.25 C 10.585938 -9.644531 11.019531 -8.375 11.875 -7.4375 C 12.726562 -6.5 13.875 -6.03125 15.3125 -6.03125 C 16.664062 -6.03125 17.875 -6.503906 18.9375 -7.453125 C 20 -8.398438 20.523438 -9.785156 20.515625 -11.609375 Z M 20.515625 -11.609375 "/></g></g></g><g fill="#000000" fill-opacity="1"><g transform="translate(199.453483, 92.624997)"><g><path d="M 3.015625 0 L 3.015625 -27.265625 L 10.578125 -27.265625 L 10.578125 0 Z M 6.8125 -30.78125 C 5.695312 -30.78125 4.738281 -31.15625 3.9375 -31.90625 C 3.132812 -32.664062 2.734375 -33.570312 2.734375 -34.625 C 2.734375 -35.675781 3.132812 -36.570312 3.9375 -37.3125 C 4.738281 -38.0625 5.695312 -38.4375 6.8125 -38.4375 C 7.9375 -38.4375 8.898438 -38.0625 9.703125 -37.3125 C 10.503906 -36.570312 10.90625 -35.675781 10.90625 -34.625 C 10.90625 -33.570312 10.503906 -32.664062 9.703125 -31.90625 C 8.898438 -31.15625 7.9375 -30.78125 6.8125 -30.78125 Z M 6.8125 -30.78125 "/></g></g></g><g fill="#000000" fill-opacity="1"><g transform="translate(213.052142, 92.624997)"><g><path d="M 2.875 0 L 2.875 -4.515625 L 16.234375 -21.046875 L 16.234375 -21.234375 L 3.34375 -21.234375 L 3.34375 -27.265625 L 25.34375 -27.265625 L 25.34375 -22.359375 L 12.796875 -6.234375 L 12.796875 -6.03125 L 25.796875 -6.03125 L 25.796875 0 Z M 2.875 0 "/></g></g></g><g fill="#000000" fill-opacity="1"><g transform="translate(241.634195, 92.624997)"><g><path d="M 25.671875 -36.359375 L 33.3125 -36.359375 L 33.3125 -12.328125 C 33.3125 -9.578125 32.664062 -7.242188 31.375 -5.328125 C 30.082031 -3.421875 28.300781 -1.96875 26.03125 -0.96875 C 23.769531 0.0195312 21.171875 0.515625 18.234375 0.515625 C 15.296875 0.515625 12.691406 0.0195312 10.421875 -0.96875 C 8.148438 -1.96875 6.367188 -3.421875 5.078125 -5.328125 C 3.796875 -7.242188 3.15625 -9.578125 3.15625 -12.328125 L 3.15625 -36.359375 L 10.84375 -36.359375 L 10.84375 -12.59375 C 10.84375 -10.644531 11.546875 -9.113281 12.953125 -8 C 14.359375 -6.894531 16.117188 -6.34375 18.234375 -6.34375 C 20.390625 -6.34375 22.164062 -6.894531 23.5625 -8 C 24.96875 -9.113281 25.671875 -10.644531 25.671875 -12.59375 Z M 25.671875 -36.359375 "/></g></g></g><g fill="#000000" fill-opacity="1"><g transform="translate(278.098503, 92.624997)"><g><path d="M 3.015625 10.234375 L 3.015625 -27.265625 L 10.46875 -27.265625 L 10.46875 -22.6875 L 10.8125 -22.6875 C 11.15625 -23.4375 11.640625 -24.1875 12.265625 -24.9375 C 12.890625 -25.695312 13.71875 -26.332031 14.75 -26.84375 C 15.78125 -27.363281 17.054688 -27.625 18.578125 -27.625 C 20.578125 -27.625 22.410156 -27.101562 24.078125 -26.0625 C 25.742188 -25.03125 27.082031 -23.472656 28.09375 -21.390625 C 29.101562 -19.316406 29.609375 -16.71875 29.609375 -13.59375 C 29.609375 -10.550781 29.117188 -7.984375 28.140625 -5.890625 C 27.160156 -3.804688 25.832031 -2.226562 24.15625 -1.15625 C 22.488281 -0.09375 20.625 0.4375 18.5625 0.4375 C 17.09375 0.4375 15.84375 0.195312 14.8125 -0.28125 C 13.789062 -0.769531 12.957031 -1.382812 12.3125 -2.125 C 11.664062 -2.863281 11.164062 -3.613281 10.8125 -4.375 L 10.578125 -4.375 L 10.578125 10.234375 Z M 10.421875 -13.640625 C 10.421875 -11.210938 10.921875 -9.257812 11.921875 -7.78125 C 12.921875 -6.3125 14.332031 -5.578125 16.15625 -5.578125 C 18.019531 -5.578125 19.441406 -6.320312 20.421875 -7.8125 C 21.398438 -9.3125 21.890625 -11.253906 21.890625 -13.640625 C 21.890625 -16.003906 21.398438 -17.921875 20.421875 -19.390625 C 19.453125 -20.867188 18.03125 -21.609375 16.15625 -21.609375 C 14.320312 -21.609375 12.90625 -20.890625 11.90625 -19.453125 C 10.914062 -18.015625 10.421875 -16.078125 10.421875 -13.640625 Z M 10.421875 -13.640625 "/></g></g></g><g fill="#000000" fill-opacity="1"><g transform="translate(309.716283, 92.624997)"><g><path d="M 13.640625 -2.15625 L 13.640625 -11.40625 L 4.390625 -11.40625 L 4.390625 -17.75 L 13.640625 -17.75 L 13.640625 -27 L 20 -27 L 20 -17.75 L 29.25 -17.75 L 29.25 -11.40625 L 20 -11.40625 L 20 -2.15625 Z M 13.640625 -2.15625 "/></g></g></g></svg>