<svg xmlns="http://www.w3.org/2000/svg" xmlns:xlink="http://www.w3.org/1999/xlink" width="128" zoomAndPan="magnify" viewBox="0 0 96 95.999999" height="128" preserveAspectRatio="xMidYMid meet" version="1.0"><defs><g/><clipPath id="68849f0168"><path d="M 48 0 C 21.492188 0 0 21.492188 0 48 C 0 74.507812 21.492188 96 48 96 C 74.507812 96 96 74.507812 96 48 C 96 21.492188 74.507812 0 48 0 Z M 48 0 " clip-rule="nonzero"/></clipPath><clipPath id="087a8768cc"><path d="M 0 0 L 96 0 L 96 96 L 0 96 Z M 0 0 " clip-rule="nonzero"/></clipPath><clipPath id="e8ecb56a7a"><path d="M 48 0 C 21.492188 0 0 21.492188 0 48 C 0 74.507812 21.492188 96 48 96 C 74.507812 96 96 74.507812 96 48 C 96 21.492188 74.507812 0 48 0 Z M 48 0 " clip-rule="nonzero"/></clipPath><clipPath id="3ad0fe5c2d"><rect x="0" width="96" y="0" height="96"/></clipPath><clipPath id="7e0ab6f599"><rect x="0" width="40" y="0" height="83"/></clipPath></defs><g clip-path="url(#68849f0168)"><g transform="matrix(1, 0, 0, 1, 0, -0.000000000000008101)"><g clip-path="url(#3ad0fe5c2d)"><g clip-path="url(#087a8768cc)"><g clip-path="url(#e8ecb56a7a)"><rect x="-21.12" width="138.24" fill="#ff5722" height="138.239999" y="-21.12" fill-opacity="1"/></g></g></g></g></g><g transform="matrix(1, 0, 0, 1, 28, 6)"><g clip-path="url(#7e0ab6f599)"><g fill="#ffffff" fill-opacity="1"><g transform="translate(0.812961, 66.047758)"><g><path d="M 12.984375 -14.875 L 12.984375 -15.703125 C 13.003906 -18.523438 13.257812 -20.773438 13.75 -22.453125 C 14.238281 -24.128906 14.957031 -25.476562 15.90625 -26.5 C 16.851562 -27.53125 18.003906 -28.476562 19.359375 -29.34375 C 20.835938 -30.289062 22.085938 -31.328125 23.109375 -32.453125 C 24.128906 -33.578125 24.640625 -34.925781 24.640625 -36.5 C 24.640625 -38.1875 24.0625 -39.535156 22.90625 -40.546875 C 21.75 -41.554688 20.351562 -42.0625 18.71875 -42.0625 C 17.144531 -42.0625 15.726562 -41.539062 14.46875 -40.5 C 13.21875 -39.46875 12.550781 -37.96875 12.46875 -36 L 2.59375 -36 C 2.675781 -39.226562 3.453125 -41.898438 4.921875 -44.015625 C 6.390625 -46.128906 8.332031 -47.703125 10.75 -48.734375 C 13.175781 -49.773438 15.851562 -50.296875 18.78125 -50.296875 C 21.988281 -50.296875 24.828125 -49.765625 27.296875 -48.703125 C 29.773438 -47.648438 31.710938 -46.117188 33.109375 -44.109375 C 34.515625 -42.109375 35.21875 -39.695312 35.21875 -36.875 C 35.21875 -34.03125 34.535156 -31.660156 33.171875 -29.765625 C 31.804688 -27.878906 29.992188 -26.265625 27.734375 -24.921875 C 25.828125 -23.773438 24.429688 -22.539062 23.546875 -21.21875 C 22.660156 -19.894531 22.203125 -18.054688 22.171875 -15.703125 L 22.171875 -14.875 Z M 17.75 0.625 C 16.15625 0.625 14.785156 0.0625 13.640625 -1.0625 C 12.492188 -2.195312 11.925781 -3.570312 11.9375 -5.1875 C 11.925781 -6.769531 12.492188 -8.125 13.640625 -9.25 C 14.785156 -10.382812 16.15625 -10.953125 17.75 -10.953125 C 19.300781 -10.953125 20.65625 -10.382812 21.8125 -9.25 C 22.96875 -8.125 23.554688 -6.769531 23.578125 -5.1875 C 23.554688 -3.570312 22.96875 -2.195312 21.8125 -1.0625 C 20.65625 0.0625 19.300781 0.625 17.75 0.625 Z M 17.75 0.625 "/></g></g></g></g></g></svg>